Genesis.Live.In.Dusseldorf.2007.MPEG2.720p.50fps.AC3-COREWAR


Genesis - LTU Arena - 2007.06.27 (2h40m)

Setlist :
- Behind The Lines / Duke's End
- Turn It On Again
- No Son Of Mine
- Land Of Confusion
- In The Cage
- The Cinema Show
- Duke's Travels
- Afterglow
- Hold On My Heart
- Home By The Sea
- Second Home By The Sea
- Follow You Follow Me
- Firth Of Fifth
- I Know What I Like
- Mama
- Ripples
- Throwing It All Away
- Domino
- Drum Duet
- Los Endos
- Tonight Tonight Tonight
- Invisible Touch
- I Can't Dance
- The Carpet Crawler

Important notes :
- video and audio were *never* recompressed
- every edits were done in the digital domain
- some glitchs were present in the original transport stream
- 50 fps !!!

Release notes :
- HD satrip by Darklord MPEG-TS (.ts) (MPEG-2 1280x720p50 15Mbps / AC3 448kbps)
- transcoded to MPEG-PS (.m2p) (with ProjectX)
- edited and authored to BDAV (.m2ts) (with TMPGEnc Authoring Works 4)
- created PGS subtitles for the Blu-ray version
- created SRT subtitles for the .mkv version
- created chapters for the .mkv version

Play fine on Sony BDP-S350, PCH A-110 or VLC.


Genesis.Live.In.Dusseldorf.2007.MPEG2.720p.50fps.AC3-COREWAR.mkv

MD5 : 9e3467b75bbc61fd1803b389d866101a

General
Complete name                    : Genesis.Live.In.Dusseldorf.2007.MPEG2.720p.50fps.AC3-COREWAR.mkv
Format                           : Matroska
File size                        : 17.3 GiB
Duration                         : 2h 40mn
Overall bit rate                 : 15.5 Mbps
Encoded date                     : UTC 2009-11-14 14:27:58
Writing application              : mkvmerge v2.9.8 ('C'est le bon') built on Aug 13 2009 12:49:06
Writing library                  : libebml v0.7.7 + libmatroska v0.8.1

Video
ID                               : 1
Format                           : MPEG Video
Format version                   : Version 2
Format profile                   : Main@High
Format settings, Matrix          : Default
Codec ID                         : V_MPEG2
Codec ID/Info                    : MPEG 1 or 2 Video
Duration                         : 2h 40mn
Bit rate mode                    : Variable
Bit rate                         : 14.7 Mbps
Nominal bit rate                 : 15.0 Mbps
Width                            : 1 280 pixels
Height                           : 720 pixels
Display aspect ratio             : 16:9
Frame rate                       : 50.000 fps
Standard                         : Component
Colorimetry                      : 4:2:0
Scan type                        : Progressive
Bits/(Pixel*Frame)               : 0.320
Stream size                      : 16.5 GiB (95%)
Writing library                  : TMPGEnc Authoring Works 4 Version. 4.0.4.24
Language                         : English

Audio
ID                               : 2
Format                           : AC-3
Format/Info                      : Audio Coding 3
Codec ID                         : A_AC3
Duration                         : 2h 40mn
Bit rate mode                    : Constant
Bit rate                         : 448 Kbps
Channel(s)                       : 6 channels
Channel positions                : Front: L C R, Surround: L R, LFE
Sampling rate                    : 48.0 KHz
Stream size                      : 513 MiB (3%)
Language                         : English

Text
ID                               : 3
Format                           : UTF-8
Codec ID                         : S_TEXT/UTF8
Codec ID/Info                    : UTF-8 Plain Text
Language                         : English

Menu
00:00:00.000                     : en:Genesis - Live in Dusseldorf
00:00:28.360                     : en:LTU Arena - 2007.06.27
00:00:57.640                     : en:Start
00:03:21.160                     : en:Behind The Lines / Duke's End
00:06:58.120                     : en:Turn It On Again
00:11:35.560                     : en:Welcome Speech
00:13:44.200                     : en:No Son Of Mine
00:20:43.960                     : en:Land Of Confusion
00:26:40.120                     : en:In The Cage
00:35:02.200                     : en:The Cinema Show
00:37:56.440                     : en:Duke's Travels
00:39:55.960                     : en:Afterglow
00:44:46.360                     : en:Hold On My Heart
00:50:58.840                     : en:Home By The Sea (Intro)
00:52:43.920                     : en:Home By The Sea
00:58:07.920                     : en:Second Home By The Sea
01:04:53.440                     : en:Follow You Follow Me
01:09:19.360                     : en:Firth Of Fifth
01:14:01.600                     : en:I Know What I Like
01:22:23.200                     : en:Mama
01:29:12.160                     : en:Ripples (Intro)
01:30:09.760                     : en:Ripples
01:38:09.760                     : en:Throwing It All Away
01:44:26.560                     : en:Domino (Intro)
01:47:18.040                     : en:Domino
01:59:07.000                     : en:Drum Duet
02:05:20.920                     : en:Los Endos
02:11:44.920                     : en:Tonight Tonight Tonight
02:15:30.040                     : en:Invisible Touch
02:20:51.640                     : en:Interlude
02:22:48.760                     : en:I Can't Dance
02:29:18.520                     : en:Band Introduction
02:30:58.840                     : en:The Carpet Crawler
02:37:18.040                     : en:End
